<svg _ngcontent-c10="" xml:space="preserve" xmlns:xlink="http://www.w3.org/1999/xlink" id="Layer_1" style="enable-background:new 0 0 120 40;" version="1.1" viewBox="0 0 120 40" width="120" x="0px" xmlns="http://www.w3.org/2000/svg" y="0px">
							<g _ngcontent-c10="">
								<path _ngcontent-c10="" d="M114.4,4.2c0.5,0.1,0.8,0.7,0.7,1.2l-1.8,8.2c-0.1,0.4-0.4,0.7-0.8,0.7h-2.6c-0.5,0-0.9-0.4-0.9-0.9c0-0.1,0-0.1,0-0.2
                c0.1-2.7-1.6-4.7-5.4-4.7c-6.3,0-10.9,5.2-11.5,12c-0.6,7,4.3,11.1,11.1,11.1c3.5,0,6.3-0.7,7.8-1.2c0.6-0.2,1.2,0.3,1.1,1
                l-0.8,4.2c-0.1,0.4-0.3,0.7-0.7,0.8c-1.4,0.4-5.3,1.5-11.3,1.5c-14.3,0-20.1-8.2-19.2-16.6C81,14,85.9,3,105.4,3
                C109.1,3,112.1,3.6,114.4,4.2"></path>
								<path _ngcontent-c10="" d="M34,4.3c0.1-0.4,0.5-0.7,0.9-0.7h14c0.5,0,1,0.5,0.8,1l-0.5,2.2c-0.1,0.4-0.4,0.6-0.8,0.7c-0.1,0-0.1,0-0.1,0
                c-1.1,0.1-3,0.5-4.5,1.7l-11.7,9.7c0,0,0,0,0,0l9,12.1c1.7,2.2,2.6,2.6,4.3,2.7c0.6,0,1,0.5,0.9,1.1l-0.5,2.2
                c-0.1,0.4-0.4,0.7-0.8,0.7h-7c-7.7,0-9.9-3.4-16.3-15.2c0,0,0,0,0,0L19.9,31c-0.3,1.3,0.8,2,1.7,2.4c0,0,0.1,0,0.1,0
                c0.4,0.2,0.6,0.6,0.5,1l-0.6,2.5c-0.1,0.4-0.4,0.7-0.8,0.7H4.6c-0.6,0-1-0.5-0.9-1.1l0.5-2.2c0.1-0.4,0.4-0.7,0.8-0.7c0,0,0,0,0,0
                c1.5-0.2,3-1.1,4-5.7l3.7-16.8c0.5-2.2-0.6-3.1-1.6-3.5c0,0-0.1,0-0.2-0.1c-0.4-0.2-0.7-0.6-0.6-1.1l0.5-2.2
                c0.1-0.4,0.5-0.7,0.9-0.7h15.4c0.5,0,0.9,0.5,0.8,1l-0.5,2.2c-0.1,0.3-0.3,0.6-0.6,0.7c0,0-0.1,0-0.1,0c-0.7,0.2-1.9,0.8-2.2,2.3
                l-2.1,9.3c0,0,0,0,0,0l11.9-9.9c0.7-0.6,0.5-1.4-0.3-1.7c0,0,0,0,0,0c-0.5-0.1-0.7-0.6-0.6-1.1L34,4.3"></path>
								<path _ngcontent-c10="" d="M77.1,13.6c-0.5,0-0.9-0.4-0.9-0.9c0-0.1,0-0.1,0-0.1c0.1-2.1-0.6-3.4-3-3.4l-7.4,0l-2,9l10.6,0c0.5,0,0.9,0.5,0.8,1
                l-1,4.6c-0.1,0.4-0.4,0.7-0.8,0.7h-11c0,0-1.2,5.5-1.3,5.8c-0.4,1.8,0.8,2.7,1.6,3.1c0,0,0.1,0,0.1,0.1c0.3,0.2,0.5,0.5,0.5,0.9
                l-0.6,2.5c-0.1,0.4-0.4,0.7-0.8,0.7H49.2c-0.5,0-0.9-0.5-0.8-1l5.6-25.4c0.6-2.2-0.7-3.2-1.7-3.5c0,0-0.1,0-0.1,0
                c-0.4-0.1-0.7-0.6-0.6-1l0.5-2.2c0.1-0.4,0.5-0.7,0.9-0.7h28.7c0.5,0,0.9,0.5,0.8,1l-1.9,8.4c-0.1,0.4-0.4,0.7-0.8,0.7H77.1"></path>
							</g>
						</svg>